<?xml version="1.0" standalone="no"?>
<!DOCTYPE svg PUBLIC "-//W3C//DTD SVG 20010904//EN"
 "http://www.w3.org/TR/2001/REC-SVG-20010904/DTD/svg10.dtd">
<svg version="1.0" xmlns="http://www.w3.org/2000/svg"
 width="427.000000pt" height="50.000000pt" viewBox="0 0 427.000000 50.000000"
 preserveAspectRatio="xMidYMid meet">

<g transform="translate(0.000000,50.000000) scale(0.100000,-0.100000)"
fill="#000000" stroke="none">
<path d="M1441 493 c-14 -3 -35 -12 -48 -20 -48 -32 -53 -58 -53 -268 l0 -195
40 0 40 0 0 80 0 80 90 0 90 0 0 -80 0 -80 41 0 40 0 -3 204 -3 205 -29 30
c-43 45 -117 60 -205 44z m133 -84 c24 -19 26 -26 26 -95 l0 -74 -90 0 -91 0
3 82 c3 77 5 83 28 95 38 19 94 16 124 -8z"/>
<path d="M2409 491 c-46 -15 -66 -30 -83 -65 -35 -73 -9 -171 52 -194 15 -6
53 -13 85 -16 32 -2 65 -10 73 -17 18 -15 18 -79 1 -104 -19 -25 -119 -26
-146 -1 -22 20 -51 15 -72 -11 -11 -13 -9 -20 19 -44 30 -27 38 -29 118 -29
126 0 174 38 174 140 0 78 -49 130 -122 130 -44 0 -100 16 -110 32 -14 23 -9
85 9 99 24 21 116 18 140 -3 24 -22 32 -22 63 2 l25 19 -24 25 c-38 41 -132
58 -202 37z"/>
<path d="M3205 485 c-22 -8 -41 -15 -42 -15 -1 0 -11 -15 -22 -34 -19 -30 -21
-49 -21 -191 l0 -157 39 -39 39 -39 87 0 c96 0 131 13 159 60 13 23 16 57 16
180 0 169 -8 198 -62 226 -45 23 -144 28 -193 9z m160 -75 c12 -10 15 -39 15
-152 0 -77 -4 -147 -10 -157 -18 -35 -139 -34 -162 1 -4 7 -8 74 -8 149 0 137
5 159 40 173 24 9 108 0 125 -14z"/>
<path d="M210 302 c0 -170 -2 -191 -18 -205 -24 -21 -95 -22 -112 -2 -16 20
-30 19 -59 -4 l-25 -19 31 -31 c30 -29 36 -31 107 -31 73 0 78 2 114 34 l37
34 3 206 3 206 -40 0 -41 0 0 -188z"/>
<path d="M380 290 c0 -170 3 -205 16 -226 28 -41 65 -54 157 -54 71 0 89 3
112 22 48 38 55 70 55 273 l0 185 -40 0 -40 0 0 -188 c0 -226 1 -225 -101
-220 -87 4 -89 8 -89 231 l0 177 -35 0 -35 0 0 -200z"/>
<path d="M800 323 c1 -196 8 -235 49 -277 31 -31 33 -31 146 -34 l115 -4 0 36
0 36 -93 0 c-138 0 -131 -11 -135 219 l-3 191 -40 0 -39 0 0 -167z"/>
<path d="M1170 250 l0 -240 40 0 40 0 0 240 0 240 -40 0 -40 0 0 -240z"/>
<path d="M1770 250 l0 -240 40 0 40 0 0 188 1 187 71 -187 70 -188 59 0 59 0
0 240 0 240 -40 0 -40 0 -2 -181 -3 -180 -66 178 -67 178 -61 3 -61 3 0 -241z"/>
<path d="M2720 250 l0 -240 35 0 35 0 0 89 0 89 94 4 c89 3 97 5 126 33 72 69
61 208 -21 251 -20 10 -63 14 -149 14 l-120 0 0 -240z m246 145 c21 -32 13
-103 -13 -123 -12 -8 -41 -12 -88 -10 l-70 3 -3 78 -3 77 80 0 c75 0 82 -2 97
-25z"/>
<path d="M3550 250 l0 -240 40 0 40 0 0 95 0 95 33 0 c30 0 36 -6 91 -95 l59
-95 43 0 c24 0 44 2 44 5 0 3 -26 46 -57 97 -41 66 -53 93 -43 96 7 3 29 19
48 37 28 26 35 40 39 81 7 64 -15 117 -59 144 -28 17 -50 20 -155 20 l-123 0
0 -240z m244 148 c20 -28 21 -78 2 -103 -11 -16 -30 -20 -90 -23 l-76 -4 0 76
0 76 74 0 c66 0 77 -3 90 -22z"/>
<path d="M3940 455 l0 -35 60 0 60 0 0 -205 0 -205 40 0 40 0 0 205 0 205 65
0 65 0 0 35 0 35 -165 0 -165 0 0 -35z"/>
</g>
</svg>
